<?xml version="1.0" encoding="UTF-8"?>
<svg version="1.1" xmlns="http://www.w3.org/2000/svg" width="150" height="150">
<path d="M0 0 C2.09205372 -0.01178283 4.18103774 -0.06094145 6.27246094 -0.11157227 C24.9211531 -0.33485305 40.67170747 7.25028032 54.62402344 19.42553711 C55.23890625 19.9450293 55.85378906 20.46452148 56.48730469 20.99975586 C67.76550293 31.29273219 76.73029484 48.41301645 77.86157227 63.6184082 C78.41074472 78.3747826 78.94383753 92.76873568 72.62402344 106.42553711 C71.93759766 107.93180664 71.93759766 107.93180664 71.23730469 109.46850586 C67.88249623 116.1321665 63.4536861 121.77380421 58.62402344 127.42553711 C57.98851562 128.19510742 57.35300781 128.96467773 56.69824219 129.75756836 C53.81550845 133.18351531 51.70399457 135.52397913 47.62402344 137.42553711 C46.67011719 138.00948242 45.71621094 138.59342773 44.73339844 139.19506836 C25.02554268 151.18019459 1.69878854 154.50176916 -20.94482422 149.03173828 C-29.01923491 146.65121563 -36.76003906 142.63774526 -43.37597656 137.42553711 C-43.37597656 136.76553711 -43.37597656 136.10553711 -43.37597656 135.42553711 C-43.94574219 135.18061523 -44.51550781 134.93569336 -45.10253906 134.68334961 C-49.60037584 132.19485572 -52.90180617 128.15525069 -56.37597656 124.42553711 C-56.91609375 123.8519043 -57.45621094 123.27827148 -58.01269531 122.68725586 C-69.04073639 109.544248 -72.7345118 92.41347817 -72.75097656 75.80053711 C-72.78771484 73.8843457 -72.78771484 73.8843457 -72.82519531 71.92944336 C-72.8862663 51.83708722 -64.82186425 35.30473864 -51.25097656 20.80053711 C-37.18219418 7.28869447 -19.396099 0.05141889 0 0 Z " fill="#4C9FC2" transform="translate(72.3759765625,-0.425537109375)"/>
<path d="M0 0 C7.71353719 0.10171697 15.03950534 0.99568748 21.234375 5.94921875 C26.38616327 12.19269549 25.98031179 19.88097371 26.08203125 27.59375 C25.75574703 31.10967241 25.75574703 31.10967241 27.1875 32.3125 C28.53673742 40.1517402 25.81975215 45.94466275 22.60546875 52.96875 C20.73263474 57.38512993 20.03525396 60.51674989 20.1875 65.3125 C24.43388843 73.62065127 36.86199717 76.12603625 45.0625 79 C47.31024273 79.79459231 49.55765621 80.5901168 51.8046875 81.38671875 C52.79065918 81.73307373 53.77663086 82.07942871 54.79248047 82.4362793 C57.1875 83.3125 57.1875 83.3125 59.1875 84.3125 C59.83039556 86.94896159 60.35757783 89.51831379 60.8125 92.1875 C61.01359375 93.28771484 61.01359375 93.28771484 61.21875 94.41015625 C61.75523505 97.41556738 62.1875 100.25399878 62.1875 103.3125 C60.5078125 105.28515625 60.5078125 105.28515625 58.3125 107.375 C57.23355469 108.41333984 57.23355469 108.41333984 56.1328125 109.47265625 C55.49085937 110.07980469 54.84890625 110.68695313 54.1875 111.3125 C53.5275 111.9725 52.8675 112.6325 52.1875 113.3125 C37.21231803 124.07244556 22.48477712 128.76082857 4.25 128.75 C3.55908264 128.75040283 2.86816528 128.75080566 2.15631104 128.7512207 C-14.35515285 128.69568619 -28.54476544 125.7651674 -41.8125 115.3125 C-41.8125 114.6525 -41.8125 113.9925 -41.8125 113.3125 C-42.67101562 112.94511719 -42.67101562 112.94511719 -43.546875 112.5703125 C-46.19274402 111.10139901 -47.96103139 109.35901756 -50.0625 107.1875 C-50.76890625 106.46304688 -51.4753125 105.73859375 -52.203125 104.9921875 C-52.73421875 104.43789062 -53.2653125 103.88359375 -53.8125 103.3125 C-53.60753906 102.755625 -53.40257813 102.19875 -53.19140625 101.625 C-51.80634703 97.70177006 -50.69645737 94.16685943 -50.4375 90 C-49.8125 86.3125 -49.8125 86.3125 -47.64624023 84.234375 C-44.75124914 82.27095897 -42.1295403 81.06794331 -38.84765625 79.875 C-37.71779297 79.45476562 -36.58792969 79.03453125 -35.42382812 78.6015625 C-34.25271484 78.17617187 -33.08160156 77.75078125 -31.875 77.3125 C-19.84510641 73.50057359 -19.84510641 73.50057359 -10.8125 65.3125 C-10.10874732 60.54186887 -11.32708027 58.20176962 -14.01464844 54.31298828 C-20.06305696 45.28133537 -20.66797508 36.48728162 -20.5625 25.9375 C-20.55935791 25.23843536 -20.55621582 24.53937073 -20.55297852 23.81912231 C-20.44207379 12.15067817 -20.44207379 12.15067817 -18.42285156 9.46240234 C-16.8125 8.3125 -16.8125 8.3125 -14.4375 7.4375 C-11.1178998 6.0148142 -9.24294644 3.94548364 -6.8125 1.3125 C-5.01293576 -0.48706424 -2.43335788 0.05484436 0 0 Z " fill="#FDFDFE" transform="translate(70.8125,21.6875)"/>
<path d="M0 0 C4.35665202 1.42081805 6.99886975 3.55609543 10.3125 6.6875 C11.27671875 7.58726563 12.2409375 8.48703125 13.234375 9.4140625 C14.14703125 10.26742187 15.0596875 11.12078125 16 12 C17.34750692 13.19505176 18.70088855 14.38354374 20.0625 15.5625 C23.01707997 18.12673912 25.91960685 20.74137557 28.8125 23.375 C33.26337814 27.39382063 37.85024342 31.2129975 42.51171875 34.984375 C44.54885594 36.63455207 46.56189289 38.3060553 48.5625 40 C50.81808601 42.00138513 50.81808601 42.00138513 53 43 C54.46008995 56.49772038 48.48252241 71.29441363 40.5078125 82.00390625 C39.38285025 83.37356368 38.19926971 84.69491238 37 86 C36.01 85.505 36.01 85.505 35 85 C33.25548659 79.47570753 32.79387513 74.77149626 33 69 C32.40791748 68.82766846 31.81583496 68.65533691 31.20581055 68.4777832 C24.67801973 66.5519355 18.23077968 64.45095129 11.8125 62.1875 C10.86697266 61.86974609 9.92144531 61.55199219 8.94726562 61.22460938 C2.70682593 59.0111015 -3.87932032 56.24135937 -7 50 C-7.08097613 42.33965777 -4.17109513 36.2336355 -0.75 29.5625 C0.44976403 25.46330621 0.33778012 21.24188986 0 17 C-0.33 16.67 -0.66 16.34 -1 16 C-0.909084 13.29891496 -0.76259234 10.63069689 -0.5625 7.9375 C-0.51029297 7.17888672 -0.45808594 6.42027344 -0.40429688 5.63867188 C-0.27424165 3.75878278 -0.13771962 1.87934315 0 0 Z " fill="#346A84" transform="translate(97,37)"/>
<path d="M0 0 C0.99 0 1.98 0 3 0 C3 2.31 3 4.62 3 7 C5.64 7 8.28 7 11 7 C11 7.99 11 8.98 11 10 C8.36 10 5.72 10 3 10 C3 12.31 3 14.62 3 17 C2.34 17 1.68 17 1 17 C1 14.69 1 12.38 1 10 C-1.64 10 -4.28 10 -7 10 C-7 9.01 -7 8.02 -7 7 C-4.69 7 -2.38 7 0 7 C0 4.69 0 2.38 0 0 Z " fill="#6B9FBB" transform="translate(102,117)"/>
<path d="M0 0 C2.97 0 5.94 0 9 0 C9 0.66 9 1.32 9 2 C6.69 2 4.38 2 2 2 C2 4.31 2 6.62 2 9 C1.34 9 0.68 9 0 9 C0 6.03 0 3.06 0 0 Z " fill="#3F81A7" transform="translate(103,125)"/>
<path d="M0 0 C0.66 0.33 1.32 0.66 2 1 C-2.66666667 5.66666667 -7.33333333 10.33333333 -12 15 C-10.57641609 10.45925821 -8.27867927 7.96026853 -4.875 4.6875 C-3.96492188 3.80449219 -3.05484375 2.92148437 -2.1171875 2.01171875 C-1.41851562 1.34785156 -0.71984375 0.68398438 0 0 Z " fill="#60AFCE" transform="translate(26,16)"/>
</svg>
