<svg xmlns="http://www.w3.org/2000/svg" width="44" height="44" viewBox="0 0 512 512" version="1.1"><path d="M 279 254 L 279 404 299.455 404 L 319.909 404 320.451 400.750 C 320.749 398.962, 321.107 395.575, 321.246 393.221 L 321.500 388.943 326.998 393.082 C 334.045 398.388, 341.655 402.210, 351.035 405.156 C 357.824 407.288, 360.311 407.500, 378.500 407.500 C 401.020 407.500, 406.630 406.388, 420.500 399.177 C 429.484 394.505, 442.972 381.259, 448.899 371.286 C 456.987 357.677, 462.824 339.133, 465.052 319.974 C 466.563 306.973, 465.781 277.720, 463.605 265.829 C 457.420 232.042, 441.786 208.155, 418.500 196.914 C 406.459 191.101, 400.611 189.864, 382.500 189.302 C 368.975 188.881, 364.983 189.118, 356.695 190.834 C 345.953 193.057, 336.356 197.100, 328.993 202.505 C 326.375 204.427, 323.955 206, 323.616 206 C 323.277 206, 323 183.050, 323 155 L 323 104 301 104 L 279 104 279 254 M 119 189.924 C 111.393 191.013, 99.293 194.453, 92.496 197.460 C 77.781 203.967, 62.918 217.445, 56.659 229.955 C 53.122 237.025, 50.106 249.580, 51.623 250.922 C 52.105 251.349, 62.239 251.487, 74.141 251.229 L 95.783 250.759 96.443 246.630 C 99.064 230.237, 120.212 217.227, 141.215 219.086 C 156.277 220.419, 167.138 227.445, 173.219 239.789 C 176.407 246.260, 176.510 246.866, 176.842 261.224 L 177.183 276 155.052 276 C 142.880 276, 128.551 276.484, 123.211 277.075 C 73.690 282.558, 47 306.329, 47 344.950 C 47 363.176, 51.900 375.127, 64.510 387.653 C 70.996 394.096, 74.478 396.652, 81.109 399.837 C 95.295 406.652, 99.809 407.498, 122 407.499 C 139.666 407.500, 142.202 407.280, 148.965 405.156 C 157.766 402.392, 166.648 398.087, 173.252 393.384 C 175.866 391.523, 178.364 390, 178.802 390 C 179.241 390, 180.144 392.587, 180.809 395.750 C 182.757 405.018, 180.866 404.406, 206.662 404.115 C 219.209 403.974, 229.658 403.675, 229.882 403.451 C 230.106 403.228, 229.576 401.122, 228.705 398.772 C 226.901 393.904, 225.278 387.882, 223.795 380.555 C 223.208 377.655, 222.466 347.361, 222.054 309.500 C 221.258 236.450, 221.547 239.630, 214.377 225 C 209.109 214.252, 198.463 203.891, 186.881 198.238 C 173.271 191.597, 164.700 189.887, 143 189.482 C 132.825 189.292, 122.025 189.491, 119 189.924 M 358.691 221.501 C 345.987 224.993, 336.267 232.332, 328.026 244.653 L 323 252.168 323 297.857 L 323 343.546 326.750 349.886 C 331.423 357.789, 342.186 368.064, 349.757 371.852 C 371.093 382.525, 394.585 375.952, 407.879 355.589 C 416.889 341.786, 421.004 324.071, 420.994 299.119 C 420.982 268.206, 415.359 248.174, 402.876 234.578 C 391.704 222.410, 374.214 217.233, 358.691 221.501 M 145.500 302.051 C 119.058 303.839, 101.821 311.629, 95.083 324.838 C 90.784 333.264, 90.640 346.877, 94.752 356.172 C 103.793 376.610, 132.759 382.147, 155.419 367.767 C 161.871 363.673, 170.399 355.716, 174.119 350.320 L 177 346.140 177 323.570 L 177 301 166.750 301.154 C 161.113 301.238, 151.550 301.642, 145.500 302.051" stroke="none" fill="#743ccc" fill-rule="evenodd"/><path d="M 37.105 1.583 C 21.032 5.905, 6.854 19.769, 1.949 35.958 C -0.003 42.405, -0.028 45.639, 0.234 258 L 0.500 473.500 3.259 480 C 8.639 492.673, 19.309 503.370, 31.886 508.698 L 38.500 511.500 252.500 511.806 C 413.784 512.037, 467.855 511.822, 472 510.936 C 489.981 507.090, 507.518 490.162, 510.536 473.739 C 510.916 471.670, 511.626 469.731, 512.113 469.430 C 512.625 469.114, 512.967 378.036, 512.921 254.191 C 512.878 136.111, 512.603 40.099, 512.310 40.832 C 512.018 41.564, 510.683 38.910, 509.344 34.932 C 503.642 18.002, 489.569 4.904, 472.972 1.079 C 469.974 0.389, 398.291 0.063, 255.500 0.090 C 72.608 0.126, 41.737 0.337, 37.105 1.583 M 0.491 255.500 C 0.491 373.750, 0.607 422.273, 0.750 363.330 C 0.892 304.386, 0.892 207.636, 0.750 148.330 C 0.607 89.023, 0.491 137.250, 0.491 255.500 M 279 254 L 279 404 299.455 404 L 319.909 404 320.451 400.750 C 320.749 398.962, 321.107 395.575, 321.246 393.221 L 321.500 388.943 326.998 393.082 C 334.045 398.388, 341.655 402.210, 351.035 405.156 C 357.824 407.288, 360.311 407.500, 378.500 407.500 C 401.020 407.500, 406.630 406.388, 420.500 399.177 C 429.484 394.505, 442.972 381.259, 448.899 371.286 C 456.987 357.677, 462.824 339.133, 465.052 319.974 C 466.563 306.973, 465.781 277.720, 463.605 265.829 C 457.420 232.042, 441.786 208.155, 418.500 196.914 C 406.459 191.101, 400.611 189.864, 382.500 189.302 C 368.975 188.881, 364.983 189.118, 356.695 190.834 C 345.953 193.057, 336.356 197.100, 328.993 202.505 C 326.375 204.427, 323.955 206, 323.616 206 C 323.277 206, 323 183.050, 323 155 L 323 104 301 104 L 279 104 279 254 M 119 189.924 C 111.393 191.013, 99.293 194.453, 92.496 197.460 C 77.781 203.967, 62.918 217.445, 56.659 229.955 C 53.122 237.025, 50.106 249.580, 51.623 250.922 C 52.105 251.349, 62.239 251.487, 74.141 251.229 L 95.783 250.759 96.443 246.630 C 99.064 230.237, 120.212 217.227, 141.215 219.086 C 156.277 220.419, 167.138 227.445, 173.219 239.789 C 176.407 246.260, 176.510 246.866, 176.842 261.224 L 177.183 276 155.052 276 C 142.880 276, 128.551 276.484, 123.211 277.075 C 73.690 282.558, 47 306.329, 47 344.950 C 47 363.176, 51.900 375.127, 64.510 387.653 C 70.996 394.096, 74.478 396.652, 81.109 399.837 C 95.295 406.652, 99.809 407.498, 122 407.499 C 139.666 407.500, 142.202 407.280, 148.965 405.156 C 157.766 402.392, 166.648 398.087, 173.252 393.384 C 175.866 391.523, 178.364 390, 178.802 390 C 179.241 390, 180.144 392.587, 180.809 395.750 C 182.757 405.018, 180.866 404.406, 206.662 404.115 C 219.209 403.974, 229.658 403.675, 229.882 403.451 C 230.106 403.228, 229.576 401.122, 228.705 398.772 C 226.901 393.904, 225.278 387.882, 223.795 380.555 C 223.208 377.655, 222.466 347.361, 222.054 309.500 C 221.258 236.450, 221.547 239.630, 214.377 225 C 209.109 214.252, 198.463 203.891, 186.881 198.238 C 173.271 191.597, 164.700 189.887, 143 189.482 C 132.825 189.292, 122.025 189.491, 119 189.924 M 358.691 221.501 C 345.987 224.993, 336.267 232.332, 328.026 244.653 L 323 252.168 323 297.857 L 323 343.546 326.750 349.886 C 331.423 357.789, 342.186 368.064, 349.757 371.852 C 371.093 382.525, 394.585 375.952, 407.879 355.589 C 416.889 341.786, 421.004 324.071, 420.994 299.119 C 420.982 268.206, 415.359 248.174, 402.876 234.578 C 391.704 222.410, 374.214 217.233, 358.691 221.501 M 145.500 302.051 C 119.058 303.839, 101.821 311.629, 95.083 324.838 C 90.784 333.264, 90.640 346.877, 94.752 356.172 C 103.793 376.610, 132.759 382.147, 155.419 367.767 C 161.871 363.673, 170.399 355.716, 174.119 350.320 L 177 346.140 177 323.570 L 177 301 166.750 301.154 C 161.113 301.238, 151.550 301.642, 145.500 302.051" stroke="none" fill="#ebdbfb" fill-rule="evenodd"/></svg>