<svg xmlns="http://www.w3.org/2000/svg" width="44" height="44" viewBox="0 0 512 512" version="1.1"><path d="M 278.747 111.690 C 277.084 112.124, 277.006 119.532, 277.247 254.324 L 277.500 396.500 297.131 396.771 L 316.761 397.041 317.457 389.618 L 318.152 382.195 324.326 386.868 C 335.265 395.146, 348.843 399.530, 366.948 400.629 C 391.298 402.108, 410.572 395.966, 425.370 382.011 C 440.306 367.925, 449.303 349.125, 453.612 323 C 455.691 310.388, 455.695 281.779, 453.618 268.988 C 450.538 250.022, 443.889 232.466, 435.390 220.862 C 426.414 208.604, 411.233 198.270, 396.500 194.386 C 385.576 191.507, 358.269 191.722, 347.701 194.771 C 338.770 197.347, 329.197 201.921, 323.750 206.213 L 320 209.168 320 160.701 L 320 112.233 317.750 111.630 C 315.182 110.942, 281.412 110.994, 278.747 111.690 M 129.500 192.620 C 99.670 197.108, 78.564 209.650, 67.475 229.478 C 63.799 236.052, 60.232 249.632, 61.776 251.176 C 62.252 251.652, 71.802 251.920, 82.996 251.771 L 103.350 251.500 104.486 246.456 C 107.804 231.712, 124.314 220.669, 143 220.694 C 156.417 220.712, 166.838 225.399, 173.847 234.569 C 179.065 241.396, 181 249.112, 181 263.089 L 181 275 158.724 275 C 134.613 275, 124.197 275.906, 111 279.153 C 82.420 286.183, 63.394 303.346, 58.511 326.500 C 49.266 370.340, 83.751 403.965, 134.493 400.586 C 151.361 399.463, 165.695 394.718, 177.210 386.445 C 179.952 384.474, 182.397 383.064, 182.644 383.310 C 182.890 383.557, 183.865 386.625, 184.810 390.129 L 186.529 396.500 208.885 396.769 L 231.241 397.039 230.650 394.769 C 230.325 393.521, 228.840 388.225, 227.348 383 L 224.637 373.500 223.995 310 C 223.380 249.140, 223.264 246.175, 221.198 238.675 C 218.254 227.982, 214.721 221.831, 206.588 213.233 C 200.979 207.304, 197.962 205.082, 190.588 201.453 C 176.755 194.645, 168.556 192.878, 149 192.493 C 139.925 192.314, 131.150 192.371, 129.500 192.620 M 350.762 223.886 C 340.038 227.418, 330.793 234.931, 323.578 245.977 L 320 251.454 320 295.500 L 320 339.546 323.750 345.893 C 328.357 353.690, 337.235 362.080, 345.058 366.029 C 367.527 377.372, 392.740 367.769, 404.093 343.543 C 410.549 329.765, 412.345 319.850, 412.429 297.500 C 412.503 277.689, 411.566 269.624, 407.839 258 C 402.917 242.653, 394.197 231.684, 382.238 225.796 C 376.422 222.933, 374.545 222.524, 366.079 222.277 C 358.791 222.064, 355.127 222.449, 350.762 223.886 M 135 301.545 C 122.830 304.140, 115.004 307.857, 108.926 313.930 C 102.189 320.662, 100 326.232, 100 336.641 C 100 364.846, 129.097 378.791, 156.960 363.941 C 164.572 359.884, 172.277 353.409, 177.047 347.061 L 181 341.799 181 320.900 L 181 300 161.250 300.079 C 148.506 300.131, 139.194 300.651, 135 301.545" stroke="none" fill="#5404ac" fill-rule="evenodd"/><path d="M 37.105 1.583 C 20.218 6.124, 5.022 21.919, 1.079 39.028 C -0.352 45.241, -0.352 466.759, 1.079 472.972 C 4.010 485.691, 15.048 500.089, 26.575 506.230 C 38.106 512.374, 23.245 512, 256 512 C 488.812 512, 474.030 512.373, 485.344 506.217 C 496.397 500.203, 506.414 488.182, 509.604 477.102 C 510.492 474.021, 511.618 470.719, 512.109 469.764 C 513.276 467.490, 513.295 40.700, 512.128 41.421 C 511.648 41.718, 511.004 40.411, 510.697 38.518 C 510.389 36.624, 508.684 32.021, 506.908 28.287 C 503.102 20.290, 493.201 9.912, 485.425 5.770 C 473.888 -0.377, 488.839 -0.006, 255.540 0.066 C 72.668 0.122, 41.736 0.337, 37.105 1.583 M 0.491 256 C 0.491 373.975, 0.607 422.238, 0.750 363.250 C 0.892 304.263, 0.892 207.738, 0.750 148.750 C 0.607 89.763, 0.491 138.025, 0.491 256 M 278.747 111.690 C 277.084 112.124, 277.006 119.532, 277.247 254.324 L 277.500 396.500 297.131 396.771 L 316.761 397.041 317.457 389.618 L 318.152 382.195 324.326 386.868 C 335.265 395.146, 348.843 399.530, 366.948 400.629 C 391.298 402.108, 410.572 395.966, 425.370 382.011 C 440.306 367.925, 449.303 349.125, 453.612 323 C 455.691 310.388, 455.695 281.779, 453.618 268.988 C 450.538 250.022, 443.889 232.466, 435.390 220.862 C 426.414 208.604, 411.233 198.270, 396.500 194.386 C 385.576 191.507, 358.269 191.722, 347.701 194.771 C 338.770 197.347, 329.197 201.921, 323.750 206.213 L 320 209.168 320 160.701 L 320 112.233 317.750 111.630 C 315.182 110.942, 281.412 110.994, 278.747 111.690 M 129.500 192.620 C 99.670 197.108, 78.564 209.650, 67.475 229.478 C 63.799 236.052, 60.232 249.632, 61.776 251.176 C 62.252 251.652, 71.802 251.920, 82.996 251.771 L 103.350 251.500 104.486 246.456 C 107.804 231.712, 124.314 220.669, 143 220.694 C 156.417 220.712, 166.838 225.399, 173.847 234.569 C 179.065 241.396, 181 249.112, 181 263.089 L 181 275 158.724 275 C 134.613 275, 124.197 275.906, 111 279.153 C 82.420 286.183, 63.394 303.346, 58.511 326.500 C 49.266 370.340, 83.751 403.965, 134.493 400.586 C 151.361 399.463, 165.695 394.718, 177.210 386.445 C 179.952 384.474, 182.397 383.064, 182.644 383.310 C 182.890 383.557, 183.865 386.625, 184.810 390.129 L 186.529 396.500 208.885 396.769 L 231.241 397.039 230.650 394.769 C 230.325 393.521, 228.840 388.225, 227.348 383 L 224.637 373.500 223.995 310 C 223.380 249.140, 223.264 246.175, 221.198 238.675 C 218.254 227.982, 214.721 221.831, 206.588 213.233 C 200.979 207.304, 197.962 205.082, 190.588 201.453 C 176.755 194.645, 168.556 192.878, 149 192.493 C 139.925 192.314, 131.150 192.371, 129.500 192.620 M 350.762 223.886 C 340.038 227.418, 330.793 234.931, 323.578 245.977 L 320 251.454 320 295.500 L 320 339.546 323.750 345.893 C 328.357 353.690, 337.235 362.080, 345.058 366.029 C 367.527 377.372, 392.740 367.769, 404.093 343.543 C 410.549 329.765, 412.345 319.850, 412.429 297.500 C 412.503 277.689, 411.566 269.624, 407.839 258 C 402.917 242.653, 394.197 231.684, 382.238 225.796 C 376.422 222.933, 374.545 222.524, 366.079 222.277 C 358.791 222.064, 355.127 222.449, 350.762 223.886 M 135 301.545 C 122.830 304.140, 115.004 307.857, 108.926 313.930 C 102.189 320.662, 100 326.232, 100 336.641 C 100 364.846, 129.097 378.791, 156.960 363.941 C 164.572 359.884, 172.277 353.409, 177.047 347.061 L 181 341.799 181 320.900 L 181 300 161.250 300.079 C 148.506 300.131, 139.194 300.651, 135 301.545" stroke="none" fill="#dbabfb" fill-rule="evenodd"/></svg>